[B]Satte Pe Satta (1982) DVDRip XviD MP3[/B]

[img]http://www.shotpix.com/images/04015888186546134283.jpeg[/img]


[B]INFO[/B]
[CODE]Format                           : AVI
Format/Info                      : Audio Video Interleave
File size                        : 1.45 GiB
Duration                         : 2h 33mn
Overall bit rate                 : 1 346 Kbps

Video
ID                               : 0
Format                           : MPEG-4 Visual
Format profile                   : Advanced Simple@L5
Format settings, BVOP            : 2
Format settings, QPel            : No
Format settings, GMC             : No warppoints
Format settings, Matrix          : Default (H.263)
Codec ID                         : XVID
Codec ID/Hint                    : XviD
Duration                         : 2h 33mn
Bit rate                         : 1 083 Kbps
Width                            : 640 pixels
Height                           : 304 pixels
Display aspect ratio             : 2.2:1
Frame rate                       : 29.970 fps
Color space                      : YUV
Chroma subsampling               : 4:2:0
Bit depth                        : 8 bits
Scan type                        : Progressive
Compression mode                 : Lossy
Bits/(Pixel*Frame)               : 0.186
Stream size                      : 1.16 GiB (80%)
Writing library                  : XviD 1.2.1 (UTC 2008-12-04)

Audio
ID                               : 1
Format                           : MPEG Audio
Format version                   : Version 1
Format profile                   : Layer 3
Mode                             : Joint stereo
Mode extension                   : MS Stereo
Codec ID                         : 55
Codec ID/Hint                    : MP3
Duration                         : 2h 33mn
Bit rate mode                    : Constant
Bit rate                         : 256 Kbps
Channel(s)                       : 2 channels
Sampling rate                    : 48.0 KHz
Compression mode                 : Lossy
Stream size                      : 282 MiB (19%)
Alignment                        : Aligned on interleaves
Interleave, duration             : 133 ms (4.00 video frames)
Interleave, preload duration     : 216 ms
Title                            : VTS_02_1 T80 3_2ch 384Kbps DELAY 0ms
Writing library                  : LAME3.98r
Encoding settings                : -m j -V 4 -q 2 -lowpass 19.7[/CODE]


[B]SCREEN SHOTS[/B]
 
http://www.shotpix.com/images/75690662413890170956.png
 
http://www.shotpix.com/images/73295513124577012504.png
 
http://www.shotpix.com/images/61762029547033388072.png
 
http://www.shotpix.com/images/62510600769327991718.png
 
http://www.shotpix.com/images/58595356338970374800.png
 
http://www.shotpix.com/images/99680656900586423899.png
 
http://www.shotpix.com/images/11702163966152398981.png
 
http://www.shotpix.com/images/53633519274319490705.png
 
http://www.shotpix.com/images/31375967065559621965.png
 
http://www.shotpix.com/images/74356331486386629708.png
 
http://www.shotpix.com/images/26272562149137808883.png
 
http://www.shotpix.com/images/61256288103368212511.png
 
http://www.shotpix.com/images/24848421265977382960.png

*** PLEASE SEED AFTER DOWNLOAD ***
** ENJOY THE MOVIE **